<svg viewBox="0 0 567.59456 567.59454" xmlns="http://www.w3.org/2000/svg"><g transform="translate(-124.41333 -39.975277)"><circle cx="408.20001" cy="323.79999" fill="#fff" r="283.79999" transform="matrix(.7071 -.7071 .7071 .7071 -109.3866 383.4518)"/><g fill="#405174"><path d="m242.3 411.4h-7.4v23.6h6.7c4.2 0 7.4-1 9.6-3.1s3.3-5 3.3-8.9c0-3.6-1.1-6.5-3.2-8.5-2.2-2.1-5.2-3.1-9-3.1m-.3 19.4h-2.1v-15.3h2.7c4.5 0 6.7 2.5 6.7 7.6s-2.4 7.7-7.3 7.7"/><path d="m274.2 430.8v-6.1h8v-4.1h-8v-5.1h8.6v-4.1h-13.6v23.5h13.6v-4.1z"/><path d="m306.6 425.4c-.7 2.5-1.1 4.2-1.2 5.2-.1-.4-.2-1.2-.5-2.3s-.5-2.1-.8-2.9l-4.4-14h-5l8 23.6h5.4l8-23.6h-5z"/><path d="m333.9 430.8v-6.1h8v-4.1h-8v-5.1h8.6v-4.1h-13.6v23.5h13.6v-4.1z"/><path d="m371.9 434.9v-4.1h-9.6v-19.4h-5v23.5z"/><path d="m396.1 411c-3.6 0-6.4 1-8.3 3.1s-2.9 5.1-2.9 9 1 6.9 2.9 9 4.7 3.1 8.3 3.1 6.4-1.1 8.3-3.1c1.9-2.1 2.9-5.1 2.9-9s-1-6.9-2.9-9c-2-2.1-4.7-3.1-8.3-3.1m-.1 20.1c-2 0-3.5-.7-4.5-2s-1.5-3.3-1.5-5.9.5-4.6 1.5-6c1-1.3 2.5-2 4.5-2 4 0 5.9 2.7 5.9 8 .1 5.2-1.9 7.9-5.9 7.9"/><path d="m429.5 411.4h-7.5v23.6h5v-8.4h2.1c2.9 0 5.2-.7 6.8-2s2.4-3.3 2.4-5.8c0-2.4-.7-4.3-2.2-5.5-1.5-1.3-3.7-1.9-6.6-1.9m2.6 10.1c-.8.6-1.9.9-3.4.9h-1.7v-7h2.3c1.4 0 2.4.3 3 .8.6.6 1 1.4 1 2.6-.1 1.3-.4 2.1-1.2 2.7"/><path d="m465.1 429.4-5.7-18h-6.8v23.6h4.5v-11c0-1.3-.1-3.8-.3-7.5h.1l5.7 18.5h4.6l6.1-18.4h.1c-.1 3-.2 4.8-.2 5.5v1.8 11.1h4.7v-23.6h-6.9z"/><path d="m498.6 430.8v-6.1h8v-4.1h-8v-5.1h8.6v-4.1h-13.6v23.5h13.6v-4.1z"/><path d="m538.4 422.5c0 1.3.1 3.4.2 6.5h-.1l-10.2-17.6h-6.3v23.6h4.5v-11.1c0-1.3-.1-3.6-.3-6.7h.1l10.2 17.8h6.3v-23.6h-4.5v11.1z"/><path d="m567.8 434.9v-19.4h6.4v-4.1h-17.8v4.1h6.4v19.4z"/><path d="m650.6 361.5-35.2-78.4 23.5-51.9-1.3-.6-23 50.7-12.8-28.6h-.7-14-.7l-48.8 108.7h14.7l14.2-31.5h26.2l-25.1 55.5 1.3.6 39.2-86.7 27.9 62h14.6zm-51.9-45h-26.2l21.6-48.1 13.1 29.3z"/><path d="m466.3 303.2 32.6-72-1.3-.6-11.6 25.5c-1.2-.6-2.5-1.2-3.8-1.7-7.1-2.8-14.7-4.3-22.7-4.3-15.8 0-29.2 5.5-40.2 16.4-11 11-16.4 24.4-16.4 40.5 0 16 5.5 29.5 16.4 40.5 5.8 5.8 12.3 10 19.5 12.8l-11.4 25.3 1.3.6 11.5-25.4c6 2.1 12.4 3.2 19.3 3.2 16.5 0 29.9-5.4 40-16.1 9-9 13.5-21.1 13.5-36.4 0-2.6-.3-5.4-.8-8.2h-45.9zm-36.8 35c-8.1-8.3-12.2-18.7-12.2-31.2s4.1-22.9 12.2-31.2c8.2-8.2 18.3-12.3 30.1-12.3 6.1 0 11.8 1.1 17.1 3.4 1.3.5 2.5 1.2 3.6 1.8l-35.8 79.1c-5.5-1.9-10.6-5.1-15-9.6m57.2 3.2c-7.2 6.1-16.2 9.1-27.1 9.1-4.9 0-9.5-.7-13.7-2.1l14.5-32.1h38.7c-1.1 10.6-5.2 19-12.4 25.1"/><path d="m235.4 312.4c-4-4.6-10.3-8.6-18.9-12l29.8-65.7-1.3-.6-12.3 27.3c-1.6-1.7-3.5-3.4-5.6-4.8-6.1-4.3-13.3-6.4-21.6-6.4-9.4 0-17.4 2.8-23.9 8.5-6.4 5.7-9.6 12.5-9.6 20.5 0 11.5 5.8 20.1 17.3 26 2.1 1.1 7.6 3.2 16.3 6.4 1.3.4 2.5.9 3.7 1.3l-15.3 33.8c-1.1-.7-2.1-1.4-3.1-2.2-2.2-1.9-4.1-4.1-5.7-6.8-1.6-2.6-2.9-5.6-3.8-8.8l-13.4 5.5c2.6 9.1 7.4 16.3 14.3 21.6 1.9 1.4 3.8 2.6 5.8 3.7l-13.3 29.3 1.3.6 13.3-29.3c5.1 2.4 10.7 3.6 16.7 3.6 10.1 0 18.8-2.8 25.9-8.5 7-5.8 10.5-13.4 10.5-23-.1-7.9-2.4-14.6-7.1-20m-23.7-13.8c-10.9-3.7-17.9-7-21.1-9.7-2.9-2.7-4.4-6-4.4-9.7 0-4.6 1.9-8.3 5.6-11.1 3.8-3 8.4-4.6 13.8-4.6 5.2 0 9.6 1.3 13.2 4 3.3 2.5 5.5 5.5 6.8 9.1l-10.5 23.2c-1.1-.3-2.2-.8-3.4-1.2m10.3 47c-4.1 3.3-9.3 4.9-15.7 4.9-2.9 0-5.7-.5-8.4-1.6-1-.4-1.9-.9-2.9-1.4l15.4-34c5.9 2.4 10.1 4.8 12.6 7.2 3.4 3.2 5 7.1 5 11.7.1 5.5-1.9 9.9-6 13.2"/><path d="m368.8 231.2-1.3-.6-22.9 50.7-12.6-28.1 10-22-1.3-.6-10 22.2h-12.9l9.8-21.6-1.3-.6-70.1 154.9 1.3.6 11.2-24.6h12.9l-10.9 24 1.3.6 25.4-56.1h25.3l-25.1 55.5 1.3.6 39.3-86.7 27.9 62.1h14.7l-35.5-78.5zm-40.3 85.3h-25.3l21.3-47 12.6 28.1z"/></g></g></svg>